<svg xmlns="http://www.w3.org/2000/svg" xmlns:xlink="http://www.w3.org/1999/xlink" width="605" height="80" viewBox="0 0 605 80">
    <defs>
        <path id="a" d="M.26.277h342.947V80H.26z"/>
    </defs>
    <g fill="none" fill-rule="evenodd">
        <path fill="#FFF" d="M51.323 13.934c-7.691 2.158-17.08 4.376-26.053 5.405-8.018.92-10.166-.671-10.316-1.362-.381-1.756 3.946-6.702 11.875-9.19 3.845-1.208 7.938-1.633 11.796-1.633 6.185 0 11.768 1.093 14.766 1.81a367.858 367.858 0 0 1-2.068 4.97M86.08 44.128c2.783-2.81 4.85-3.586 5.876-3.586.26 0 .454.05.575.129.34.222.425 1.075-.02 2.115-1.093 2.56-6.407 5.504-10.825 7.909.982-2.285 2.462-4.619 4.394-6.567m-18.161-2.655l.112-.002c.192 0 .295.019.316.008.836 1.57-2.335 8.797-3.536 11.53-1.869 4.258-2.493 5.8-2.054 7.169.34 1.063 1.139 1.859 2.249 2.24 3.152 1.077 8.276-1.59 11.082-3.302.116.529.272 1.031.473 1.502 1.06 2.499 3.247 3.933 6.002 3.936h.008c3.915 0 9.761-2.48 12.89-7.083a2.19 2.19 0 0 0-.607-3.061 2.248 2.248 0 0 0-3.096.6c-2.278 3.35-6.798 5.133-9.187 5.133h-.005c-.973-.002-1.521-.358-1.89-1.232-.275-.646-.402-1.463-.39-2.394a190.49 190.49 0 0 1 3.185-1.759c5.617-3.055 11.423-6.215 13.15-10.256 1.285-3.005.635-6.021-1.616-7.504-1.15-.756-5.428-2.704-12.113 4.043-3.578 3.61-6.03 8.454-6.797 12.815-.373.23-.731.461-1.076.692-3.393 2.276-6.106 3.335-7.562 3.633.369-.96.947-2.277 1.447-3.415 3.19-7.27 5.283-12.66 3.108-15.809-.63-.91-1.864-1.98-4.258-1.893-3.324.121-7.048 3.02-10.516 6.799l13.7-32.388a2.188 2.188 0 0 0-.456-2.385 2.251 2.251 0 0 0-2.396-.526c-.1.037-4.556 1.706-11.253 3.754 1.244-3.005 1.611-4.023 1.644-4.112a2.19 2.19 0 0 0-.107-1.72 2.226 2.226 0 0 0-1.324-1.12c-.699-.217-17.248-5.28-31.566-.785C17.376 7.125 9.38 13.324 10.59 18.903c.634 2.921 3.788 6.13 15.193 4.818 7.996-.917 16.196-2.71 23.314-4.587a1623.27 1623.27 0 0 1-6.732 15.333C30.554 61.037 6.95 61.226 2.344 60.997c-1.229-.052-2.28.875-2.341 2.092-.063 1.217.885 2.252 2.115 2.315.674.034 1.357.05 2.05.05 14.53 0 32.676-7.606 42.282-29.213 3.739-8.41 6.347-14.405 8.153-18.632a245.025 245.025 0 0 0 10.267-3.224L44.954 61.463a2.194 2.194 0 0 0 1.084 2.834 2.244 2.244 0 0 0 2.924-.91c5.068-8.998 14.3-21.744 18.956-21.914M225.358 46.848c-.803-.154-1.388-.446-1.683-.76-1.67-1.78-2.283-4.21-2.155-5.153.293.012.555-.041.806-.132.348.083.819.24 1.436.528 2.13.993 2.066 3.5 1.596 5.517m-16.043 14.14c-1.524-.34-2.407-1.008-2.104-3.278.655-4.902 5.865-11.421 10.058-14.702.438 2.185 1.627 4.45 3.167 6.092.83.885 1.972 1.53 3.31 1.904-3.119 5.86-9.417 11.112-14.43 9.985m52.603-58.88c-.842-.691-2.08-1.092-3.523-1.162-1.614-.149-3.737.104-6.115 1.477-1.526.819-3.167 2.084-4.684 4.037l-.05.064c-1.863 2.449-3.361 7.696-5.254 14.328-.208.727-.418 1.464-.632 2.208l-1.433 4.606c-.613-.024-1.2-.047-1.741-.07-3.003-.124-4.254-.166-5.07.04-1.186.3-1.94 1.506-1.64 2.688.3 1.182 1.469 1.908 2.655 1.607.437-.066 2.263.009 3.873.076l.57.022-.314 1.013c-1.106 3.173-2.328 6.184-3.71 8.755-1.374 2.557-3.306 3.843-4.9 4.49.518-4.17-.99-7.406-4.31-8.954-3.217-1.5-5.233-1.134-6.454-.37-6.229 2.197-15.293 12.126-16.369 20.164-.562 4.213 1.503 7.266 5.524 8.167 4.07.914 8.634-.561 12.85-4.152 3.117-2.654 5.784-6.271 7.353-9.915a13.572 13.572 0 0 0 4.783-1.673c-2.878 8.77-5.578 16.27-7.335 19.068-4.044 6.436-8.466 8.264-14.783 6.116a2.216 2.216 0 0 0-2.813 1.375 2.205 2.205 0 0 0 1.381 2.803c2.238.76 4.258 1.083 6.077 1.083 8.218-.001 12.349-6.576 13.895-9.036 3.11-4.954 8.26-21.204 13.02-36.542.259-.738.487-1.496.733-2.246.785.015 1.59.025 2.426.025 2.677 0 5.569-.093 8.43-.384a2.207 2.207 0 0 0-.451-4.39c-3.055.31-6.175.378-9.022.352.351-1.176.707-2.358 1.039-3.515 2.25-7.202 4.348-13.73 5.054-14.937.026-.039.055-.076.081-.111 1.46-1.68 2.796-2.664 3.949-3.222 1.013-.45 1.946-.63 2.672-.665 1.008.005 1.602.324 1.643.347a2.22 2.22 0 0 0 2.982-.569 2.2 2.2 0 0 0-.387-2.999"/>
        <path fill="#FFF" d="M141.87 35.952a956.75 956.75 0 0 0 6.787-8.747c6.497-8.453 10.825-13.028 13.382-15.32-3.486 8.033-7.775 18.141-9.61 22.466l-.466 1.098c-1.593.284-5.56.45-10.093.503m57.814-12.937l-5.404-.213c2.944-7.093 5.442-13.96 5.47-14.037a2.204 2.204 0 0 0-1.292-2.809 2.23 2.23 0 0 0-2.854 1.221 689.46 689.46 0 0 0-6.13 15.445l-6.61-.225a2.194 2.194 0 0 0-2.299 2.13v.078a2.215 2.215 0 0 0 2.146 2.204l4.989.17c-2.76 6.452-6.122 13.74-8.67 19.261-1.983 4.295-3.55 7.694-4.174 9.255l-.114.27c-1.705 3.755-7.953 6.433-10.42 5.615-.268-.089-.633-.21-.26-1.57 2.203-8.01 8.875-11.076 9.15-11.2a2.203 2.203 0 0 0 1.27-2.516 2.227 2.227 0 0 0-2.25-1.71c-3.91.171-4.67-5.545-4.699-5.78a2.213 2.213 0 0 0-1.662-1.889 2.233 2.233 0 0 0-2.367.876c-2.241 3.186-5.187 8.694-7.786 13.554-2.119 3.957-4.307 8.05-5.229 9.156-.638.768-2.38 1.214-4.173 1.416a11849.76 11849.76 0 0 1 7.191-18.395 2.31 2.31 0 0 0-.112-1.926c-.24-.441-.45-.827-2.075-1.415 3.724-.444 4.042-1.185 4.386-1.988l.819-1.928c1.839-4.335 6.146-14.485 9.631-22.515.858-1.976 2.645-6.088-.08-7.672-1.369-.796-4.576-2.658-20.952 18.649-3.149 4.096-6.101 7.902-8.924 11.434-.908-.008-1.808-.018-2.69-.034-1.117-.058-2.125.835-2.248 1.972a2.206 2.206 0 0 0 1.483 2.321c-21.39 25.95-36.383 35.366-75.976 35.366a2.215 2.215 0 0 0-2.224 2.207c0 1.218.996 2.207 2.224 2.207 42.669 0 58.67-11.397 80.883-38.764 4.439.925 8.637 1.87 10.924 2.492-2.064 5.274-7.346 18.809-7.619 19.504a2.2 2.2 0 0 0 .206 1.995 2.225 2.225 0 0 0 1.745 1.007c1.344.073 8.191.266 11.007-3.12 1.15-1.382 2.926-4.662 5.727-9.898 1.64-3.068 3.423-6.4 5.042-9.175.643 1.189 1.498 2.315 2.608 3.172-2.694 2.187-5.981 5.852-7.517 11.434-1.093 3.976.906 6.182 3.143 6.921 2.925.964 7.497-.198 11.112-2.664a4.906 4.906 0 0 0 1.66 2.114c4.622 3.397 14.187-1.243 19.197-5.45a2.196 2.196 0 0 0 .263-3.111 2.235 2.235 0 0 0-3.132-.26c-5.376 4.511-12.129 6.416-13.684 5.272-.43-.316-.443-1.69.5-3.98.045-.101.088-.204.13-.306.107-.244.449-.952.963-2.02 2.356-4.896 8.437-17.534 12.564-28.012l7.017.276c1.236.063 2.26-.9 2.31-2.119v-.09a2.215 2.215 0 0 0-2.134-2.203"/>
        <g transform="translate(261.818)">
            <mask id="b" fill="#fff">
                <use xlink:href="#a"/>
            </mask>
            <path fill="#FFF" d="M323.086 60.905c-1.816-.065-3.077-2.227-3.229-2.746-.481-2.177 2.906-12.868 8.66-17.203 1.325-.998 2.581-1.508 3.825-1.536.915.024 1.873.279 2.893.793.713.359 1.52.297 2.15-.088-7.59 19.434-12.83 20.856-14.299 20.78m-61.914-9.539l-.106.234c-.794 1.76-6.273 8.686-13.04 8.977-.84-.924-1.526-6.969 3.878-14.036 1.633-1.714 6.247-6.505 9.623-6.505h.052c.892.012 1.64.39 2.359 1.19.27.301.606.513.966.628a479.768 479.768 0 0 0-3.732 9.512m-64.13 9.346h-.01c-.59-.002-.812-.208-.983-.537-.644-1.248-.388-4.847 2.955-9.649 3.055-4.389 7.986-9.637 11.83-9.986.13-.013.255-.019.38-.019 1.033 0 1.922.405 2.777 1.253.13.13.27.239.421.328l-.25.477c-8.238 14.18-14.527 18.133-17.12 18.133m-10.774-13.245c-2.63.04-4.918-.227-5.857-.908-.323-.594.551-3.36 2.679-4.93.721-.533 1.318-.719 1.807-.719.827 0 1.343.537 1.622.827.894.93.794 3.047-.251 5.73m-12.256 13.436h-.01c-1.677-.01-2.846-.494-3.473-1.438-.9-1.354-.832-3.737.18-6.219 0-.001 0-.003.002-.005.799-1.96 2.828-5.906 5.469-8.907-.064.246-.116.49-.155.73-.354 2.148.28 3.991 1.74 5.059 1.322.966 3.608 1.516 6.255 1.701-3.165 4.987-7.762 9.08-10.008 9.08m-13.4-13.863c-1.968 5.994-6.69 11.167-11.751 12.874-1.933.649-4.727 1.044-7.548-.466 3.852-6.61 10.224-16.032 15.372-18.061 2.348-.927 3.884-.885 4.362-.43.549.521.765 2.427-.436 6.083m-42.117 3.853c.534-3.747 2.551-7.118 5.398-9.016 1.425-.95 2.93-1.442 4.358-1.442.512 0 1.015.064 1.502.192.06.016.105.03.138.043.247 1.852-4.76 8.72-11.65 13.69a24.043 24.043 0 0 1 .254-3.467M65.077 15.201c-1.225-.296-2.11-.713-2.428-1.052-.964-1.03-1.045-1.972-.265-3.148 1.164-1.758 3.394-2.739 4.461-2.836-.198 2.01-.822 4.402-1.768 7.036m277.992 20.63a2.238 2.238 0 0 0-2.103-1.289c-1.514.06-1.904 1.12-2.496 2.722l-.116.315a2.223 2.223 0 0 0-1.056-1.309c-1.193-.658-2.406-1.069-3.626-1.232-7.99-1.287-13.225 7.755-17.175 14.582-1.321 2.284-2.57 4.44-3.817 6.167-3.357 4.64-5.335 5.362-5.83 5.245-.21-.049-.735-.668-1.01-2.268-.3-1.734 1.697-5.596 3.302-8.699 2.768-5.355 5.631-10.893 1.514-13.48-2.242-1.408-4.76-1.706-7.279-.862-2.238.75-4.393 2.386-6.396 4.498l.803-2.367a2.23 2.23 0 0 0-1.365-2.82 2.214 2.214 0 0 0-2.82 1.342l-4.625 12.797c-2.946 5.087-9.7 10.735-12.648 11.784.307-2.774 2.67-9.464 5.522-16.288 1.851-3.786 2.693-6.133 2.758-6.314a2.232 2.232 0 0 0-1.254-2.81 2.213 2.213 0 0 0-2.851 1.132 262.089 262.089 0 0 0-2.928 6.61c-1.63 3.277-4.01 7.596-7.276 12.46-3.623 5.398-5.436 5.286-5.618 5.258-.594-.094-1.232-1.097-1.563-1.937.226-.9.913-2.833 1.928-5.494l.061-.133c2.546-5.63 18.213-44.114 18.88-45.75a2.233 2.233 0 0 0-1.197-2.898 2.213 2.213 0 0 0-2.895 1.178c-3.865 9.052-9 21.185-13.256 31.61-1.415-1.41-3.17-2.146-5.129-2.146h-.059c-6.151.046-12.132 7.23-12.9 8.185-2.066 2.171-3.898 4.115-5.531 5.847-9.46 10.032-11.596 12.134-13.346 11.68.421-1.982 4.047-6.93 5.858-9.4 3.219-4.392 4.424-6.036 3.694-7.783-.335-.804-1.059-1.36-1.842-1.453-.482-.323-1.002-2.224-1.225-3.034-.449-1.638-.913-3.33-2.67-3.62-.488-.082-1.742-.114-2.726 1.347-.596.883-1.302 2.012-2.11 3.306-2.742 4.395-6.888 11.037-11.946 15.943-1.742 1.691-2.829 2.498-3.46 2.881-.036-.514-.037-1.334.068-2.616.229-2.746 2.647-7.965 4.782-12.066.86-1.487 1.741-3.083 2.64-4.79a2.234 2.234 0 0 0-.878-2.985 2.215 2.215 0 0 0-2.993.81l-.26.446c-1.741-1.535-3.716-2.274-5.83-2.237-5.193.124-9.727 5.078-12.437 8.037-.361.396-.686.75-.967 1.042-.896.928-3.43 1.664-6.296 2.09 1.208-4.43.006-6.996-1.363-8.421-1.39-1.448-3.048-2.196-4.8-2.196h-.065a2.2 2.2 0 0 0-1.138-.452c-2.286-.223-4.38.39-6.269 1.489-6.114 3.515-9.965 12.015-10.715 13.782-.624.673-2.58 2.224-5.215 3.882a26.8 26.8 0 0 0 3.316-6.713c1.663-5.07 1.416-8.675-.73-10.715-1.372-1.302-4.056-2.443-9.032-.48-2.67 1.053-5.382 3.364-7.92 6.175l.706-1.745a.993.993 0 0 0 .034-.08l13.747-33.97a2.231 2.231 0 0 0-1.219-2.903 2.217 2.217 0 0 0-2.89 1.225l-13.714 33.882c-.712 1.343-8.513 15.754-17.204 19.584-2.16.951-5.06 1.837-6.623.646a3.081 3.081 0 0 1-.794-.95c7.136-4.705 15.862-13.758 15.077-19.158-.264-1.808-1.498-3.132-3.385-3.629-3.082-.811-6.434-.154-9.44 1.85-3.884 2.589-6.626 7.111-7.335 12.095-.257 1.81-.455 4.335-.112 6.796-6.383 3.666-9.108 3.898-10.02 3.812.677-2.335 3.256-9.16 6.564-17.626 2.304-5.306 4.67-11.082 6.8-16.414 3.019-.047 5.821-.168 6.38-.193a2.225 2.225 0 0 0 2.118-2.325 2.225 2.225 0 0 0-2.315-2.125c-1 .044-2.624.104-4.404.148a986.842 986.842 0 0 0 5.52-14.36 2.23 2.23 0 0 0-1.266-2.857 2.212 2.212 0 0 0-2.862 1.23 3921.693 3921.693 0 0 0-6.492 16.041c-1.497-.014-2.767-.065-3.473-.177a2.217 2.217 0 0 0-2.537 1.852 2.227 2.227 0 0 0 1.846 2.548c.59.094 1.427.153 2.394.19a1736.01 1736.01 0 0 0-5.967 15.106c-3.585 8.262-6.709 14.7-8.343 16.43-1.99 2.11-3.383 2.552-4.02 2.262-.939-.426-2.082-2.902-1.785-7.108l4.44-9.385a261.7 261.7 0 0 0 2.472-5.223 2.233 2.233 0 0 0-1.077-2.949A2.214 2.214 0 0 0 95.02 37l-2.312 4.887c-1.847 3.798-4.136 8.257-5.36 9.811-5.377 6.828-8.763 8.477-9.827 8.668-.11-.888.273-3.565 3.121-8.622.515-.914 4.943-9.046 1.916-13.014-.875-1.148-2.644-2.332-6.07-1.45-2.705.698-5.842 3.57-8.85 7.145L80.778 11.5c2.14-4.828 3.247-8.125 3.302-8.286A2.23 2.23 0 0 0 82.742.414a2.215 2.215 0 0 0-2.824 1.262l-3.22 8.07c-.358.806-.744 1.654-1.16 2.537-.976 2.07-3.314 2.842-5.103 3.124a12.96 12.96 0 0 1-.764.098c1.018-3.086 1.627-5.918 1.675-8.32a2.244 2.244 0 0 0-.156-.865c-.636-1.615-2.105-2.564-4.03-2.605l-.117-.002c-3.027 0-7.432 2.447-9.02 6.036-1.14 2.572-.632 5.288 1.394 7.452.866.926 2.294 1.666 3.996 2.155-5.763 13.19-17.284 30.11-23.987 36.96-2.582 2.64-4.895 3.81-6.193 3.141-1.29-.67-1.996-3.101-1.719-4.672 1.005-5.684 7.77-24.516 12.037-36.09a180.064 180.064 0 0 0 3.527-9.46 2.233 2.233 0 0 0-1.34-2.822 2.216 2.216 0 0 0-2.829 1.302 1078.8 1078.8 0 0 0-3.638 9.747C33.71 31.033 27.611 39.744 16.37 53.246c-4.875 5.857-8.157 7.109-9.606 6.315-1.831-1-2.631-5.483-1.583-8.88.606-1.966 2.058-4.965 3.74-8.437 3.838-7.921 9.096-18.77 9.908-28.89.41-5.074-.736-8.044-3.403-8.826-4.542-1.332-10.022 5.553-13.34 11.85a2.232 2.232 0 0 0 .921 3.01 2.211 2.211 0 0 0 2.999-.926c3.483-6.608 6.974-9.402 8.086-9.63.163.323.54 1.4.318 4.165-.748 9.281-5.793 19.695-9.476 27.298-1.763 3.636-3.284 6.776-3.99 9.068-1.535 4.976-.556 11.786 3.7 14.112 2.818 1.541 7.732 1.512 15.13-7.37 4.112-4.94 7.598-9.312 10.662-13.59-1.63 4.971-2.88 9.18-3.288 11.492-.582 3.292.775 7.711 4.052 9.41 2.271 1.178 6.089 1.442 11.391-3.977 6.32-6.461 19.25-24.704 25.385-39.423a17.583 17.583 0 0 0 3.149-.208c.591-.094 1.16-.217 1.704-.368L55.77 62.187a2.231 2.231 0 0 0 1.102 2.837 2.212 2.212 0 0 0 2.891-.917c4.868-8.694 13.618-21.427 17.83-22.511.548-.143.917-.174 1.144-.174.207-.001.3.025.303.02.506.72-.235 4.514-2.258 8.107-5.342 9.486-3.947 13.176-1.834 14.603 2.905 1.963 7.524-.292 12.941-6.215.552 3.308 2.02 5.736 4.199 6.725 1.676.76 4.284.961 7.61-1.867.36.833 1.01 1.52 1.884 1.97 2.706 1.386 7.234.283 13.794-3.375a7.402 7.402 0 0 0 1.922 2.213c2.63 2.008 6.36 1.969 11.088-.114 2.987-1.316 5.814-3.581 8.34-6.166l-1.996 4.932a2.231 2.231 0 0 0 1.134 2.865 2.217 2.217 0 0 0 2.898-1.017c.11-.217.229-.448.356-.692 2.955 1.758 6.635 2.226 10.96 1.396 5.535-1.064 11.383-4.187 15.432-6.952.12 1.536.565 2.933 1.329 4.084 1.027 1.546 3.1 3.395 7.138 3.42h.032c5.29 0 11.88-7.369 15.158-13.593a35.573 35.573 0 0 0 4.279-.617c-2.212 4.291-2.741 8.352-1.335 11.076.96 1.861 2.747 2.934 4.902 2.942h.024c1.963 0 6.04-.972 11.753-7.275-.083 2.165.15 4.898 2.278 5.913 2.62 1.25 5.74-1.256 8.72-4.148 5.446-5.284 9.765-12.202 12.622-16.78l.101-.162c.404 1.101.97 2.233 1.832 3.048-.646.97-1.608 2.283-2.386 3.344-4.487 6.122-7.374 10.365-6.644 13.437a3.576 3.576 0 0 0 1.886 2.397c4.486 2.275 7.12.158 15.95-9.142-.336 2.656-.027 4.954.793 6.574.886 1.745 2.383 2.7 4.09 2.663 4.27-.13 8.023-2.08 10.932-4.405.554 1.438 2.01 4.281 4.997 4.77 2.545.42 5.177-1.03 7.982-4.417-.215 3.144.904 3.749 1.647 4.152 1.165.632 2.673.587 4.476-.131 1.985-.792 4.414-2.412 6.795-4.456l-.677 1.876a2.229 2.229 0 0 0 1.306 2.846 2.213 2.213 0 0 0 2.847-1.284c2.274-5.916 9.657-21.766 16.445-24.038 1.272-.426 2.392-.297 3.458.327.406 1.082-1.832 5.411-3.035 7.737-2.206 4.267-4.29 8.297-3.737 11.512.754 4.375 3.067 5.542 4.377 5.847 2.928.682 6.109-1.297 9.734-6.04.563 2.026 3.15 5.74 7.12 6.015 1.7.115 3.4-.365 5.091-1.454-1.78 3.584-3.525 6.577-5.02 8.218-3.684 4.038-12.046 4.511-21.311 1.201-9.301-3.323-29.659-2.651-37.74 2.589a2.233 2.233 0 0 0-.66 3.079 2.214 2.214 0 0 0 3.066.664c6.828-4.43 25.708-5.043 33.848-2.134 11.113 3.97 21.104 3.055 26.068-2.39 2.915-3.197 6.693-10.496 11.231-21.691 3.783-9.336 5.229-13.545 5.715-15.56a8.37 8.37 0 0 0 .044-.105l-.017-.008c.317-1.356.176-1.66.055-1.925" mask="url(#b)"/>
        </g>
        <path fill="#FFF" d="M547.516 25.066a2.058 2.058 0 0 1 1.064-.304 1.687 1.687 0 0 1 .66.133l-1.923.312a1.87 1.87 0 0 1 .2-.141m2.681.666c.235.426.222.837.158 1.08a2.62 2.62 0 0 1-1.238.242l.133-2.155c.344.143.717.41.947.833m-2.266 3.304c.218.037.437.055.65.055.826 0 1.599-.272 2.184-.783 1.276-1.116 1.12-2.874.912-3.822-.213-.977-1.159-1.701-2.292-1.755-2.027-.113-3.731 2.154-3.907 3.406-.198 1.406.834 2.625 2.453 2.9M361.152 25.065a2.065 2.065 0 0 1 1.064-.303 1.691 1.691 0 0 1 .66.132l-1.936.324c.064-.053.133-.104.212-.153m2.683.667c.235.426.222.837.157 1.08a2.62 2.62 0 0 1-1.236.242l.132-2.155c.344.143.716.41.947.833m-2.267 3.304c.22.037.437.055.652.055.824 0 1.596-.272 2.182-.782 1.276-1.116 1.12-2.874.914-3.822-.213-.977-1.16-1.702-2.295-1.756-2.002-.11-3.73 2.153-3.906 3.406-.199 1.406.835 2.625 2.453 2.9"/>
    </g>
</svg>
